<?xml version="1.0" encoding="utf-8"?>
<!-- Generator: Adobe Illustrator 22.1.0, SVG Export Plug-In . SVG Version: 6.00 Build 0)  -->
<svg version="1.1" id="Ebene_1" xmlns="http://www.w3.org/2000/svg" xmlns:xlink="http://www.w3.org/1999/xlink" x="0px" y="0px"
	 viewBox="0 0 314.8 166.5" style="enable-background:new 0 0 314.8 166.5;" xml:space="preserve">
<style type="text/css">
	.st0{fill:#1E1E1E;}
	.st1{fill:#FAC28A;}
	.st2{fill:#D0A077;}
	.st3{opacity:0.78;fill:#D58148;}
	.st4{fill:#FFEAB1;}
	.st5{clip-path:url(#SVGID_2_);fill:#E6006C;}
	.st6{opacity:0.19;fill:#91554A;}
	.st7{opacity:0.16;fill:#FFFFFF;}
	.st8{opacity:0.32;fill:#FFFFFF;}
	.st9{fill:#EFE96E;}
	.st10{fill:#74CAE7;}
	.st11{fill:#F5B2C0;}
</style>
<g>
	<g>
		<path class="st0" d="M32.1,0.3c4.5,0,8.6,0.6,12.4,1.9c3.8,1.3,7,3,9.7,5c2.7,2,4.9,4.3,6.4,6.7c1.5,2.5,2.3,4.8,2.4,7
			c0,0.6-0.2,1.2-0.7,1.6c-0.5,0.5-1,0.7-1.5,0.7H47c-1,0-1.8-0.1-2.4-0.4c-0.6-0.3-1.2-0.7-1.8-1.3c-0.2-0.2-0.5-0.6-1-1.1
			c-0.5-0.5-1.1-1-1.9-1.5c-0.8-0.5-1.9-1-3.2-1.4c-1.3-0.4-2.8-0.6-4.6-0.6c-1.3,0-2.6,0.1-3.8,0.3c-1.2,0.2-2.3,0.5-3.3,0.8
			c-0.9,0.4-1.7,0.9-2.3,1.6c-0.6,0.7-0.9,1.6-0.9,2.6s0.3,1.9,1,2.6c0.7,0.7,1.8,1.4,3.4,1.9s3.7,1.2,6.3,1.7
			c2.6,0.6,5.8,1.2,9.7,2c3.9,0.8,7.2,1.8,10.1,2.9c2.9,1.2,5.3,2.7,7.2,4.5c1.9,1.8,3.4,3.9,4.3,6.3c0.9,2.4,1.4,5.3,1.4,8.6
			c0,3.6-0.8,6.8-2.4,9.6c-1.6,2.8-3.9,5.2-6.8,7.2c-2.9,2-6.3,3.5-10.3,4.6c-4,1.1-8.3,1.6-13,1.6c-4.8,0-9.1-0.6-13-1.9
			c-3.9-1.3-7.3-2.9-10.1-5c-2.8-2.1-5.1-4.4-6.7-7c-1.6-2.6-2.5-5.2-2.5-7.9c0-0.6,0.2-1.2,0.7-1.6c0.5-0.5,1-0.7,1.5-0.7h13.8
			c1,0,1.8,0.1,2.3,0.4c0.6,0.2,1.1,0.6,1.7,1.1c0.3,0.3,0.7,0.7,1.3,1.4c0.6,0.6,1.3,1.3,2.3,1.9c0.9,0.7,2.1,1.2,3.6,1.7
			c1.4,0.5,3.2,0.7,5.3,0.7c3.7,0,6.8-0.4,9.3-1.2c2.5-0.8,3.7-2.3,3.7-4.4c0-1.1-0.5-1.9-1.4-2.6c-0.9-0.7-2.3-1.3-4.1-1.9
			c-1.8-0.6-4.2-1.2-7-1.7c-2.8-0.6-6.2-1.3-10-2.1c-7.2-1.5-12.5-4.1-15.8-7.7C4,33.9,2.3,29,2.3,23c0-3,0.7-5.9,2.1-8.6
			c1.4-2.7,3.3-5.2,5.9-7.3c2.6-2.1,5.7-3.8,9.4-5C23.4,0.9,27.5,0.3,32.1,0.3z"/>
		<path class="st0" d="M135.8,1.3c0.8,0,1.4,0.3,2,0.8c0.6,0.6,0.8,1.2,0.8,2v42c0,4.8-0.8,9.1-2.3,12.8c-1.5,3.7-3.7,6.8-6.6,9.4
			c-2.8,2.5-6.2,4.4-10.1,5.7c-3.9,1.3-8.2,1.9-12.9,1.9c-4.8,0-9.1-0.6-13-1.9c-3.9-1.3-7.3-3.2-10.1-5.7c-2.8-2.5-5-5.6-6.5-9.4
			c-1.5-3.7-2.3-8-2.3-12.8v-42c0-0.8,0.3-1.4,0.8-2c0.6-0.6,1.2-0.8,2-0.8h13.8c0.8,0,1.4,0.3,2,0.8c0.6,0.6,0.8,1.2,0.8,2v41.5
			c0,4.2,1,7.5,3.1,9.9c2.1,2.4,5.2,3.6,9.4,3.6s7.3-1.2,9.4-3.6c2.1-2.4,3.1-5.7,3.1-9.9V4.2c0-0.8,0.3-1.4,0.8-2
			c0.6-0.6,1.2-0.8,2-0.8H135.8z"/>
		<path class="st0" d="M195.4,75.2c-1.2,0-2.2-0.3-2.9-0.9s-1.2-1.1-1.4-1.5l-22.1-36v35.5c0,0.8-0.3,1.4-0.8,2
			c-0.6,0.6-1.2,0.8-2,0.8h-13.8c-0.8,0-1.4-0.3-2-0.8c-0.6-0.6-0.8-1.2-0.8-2V4.4c0-0.8,0.3-1.4,0.8-2c0.6-0.6,1.2-0.8,2-0.8h10.9
			c1.2,0,2.2,0.3,2.9,0.9s1.2,1.1,1.4,1.5l22.1,36V4.4c0-0.8,0.3-1.4,0.8-2c0.6-0.6,1.2-0.8,2-0.8h13.8c0.8,0,1.4,0.3,2,0.8
			c0.6,0.6,0.8,1.2,0.8,2v67.9c0,0.8-0.3,1.4-0.8,2c-0.6,0.6-1.2,0.8-2,0.8H195.4z"/>
		<path class="st0" d="M31.4,92.8c4.8,0,9.3,0.7,13.2,2.2c4,1.4,7.4,3.5,10.4,6c2.9,2.6,5.2,5.7,6.8,9.3c1.6,3.6,2.6,7.6,2.8,11.8
			c0.1,1.5,0.1,2.8,0.1,4s0,2.4,0,3.5c0,1.1,0,2.3,0,3.5c0,1.2,0,2.5-0.1,3.9c-0.2,4.3-1.1,8.3-2.7,11.9c-1.6,3.6-3.8,6.7-6.7,9.3
			c-2.8,2.6-6.2,4.6-10.1,6c-3.9,1.4-8.3,2.2-13.1,2.2H3.6c-0.8,0-1.4-0.3-2-0.8c-0.6-0.6-0.8-1.2-0.8-2V95.7c0-0.8,0.3-1.4,0.8-2
			c0.6-0.6,1.2-0.8,2-0.8H31.4z M45.2,121.8c-0.4-8.1-5.2-12.1-14.3-12.1H20.2v40h11.3c8.8,0,13.4-4,13.8-12.1
			c0.1-1.5,0.1-2.9,0.1-4.2c0-1.3,0-2.6,0-3.8c0-1.2,0-2.5,0-3.7C45.3,124.6,45.3,123.2,45.2,121.8z"/>
		<path class="st0" d="M117,92.8c1.4,0,2.5,0.4,3.2,1.2c0.7,0.8,1.2,1.5,1.5,2.3l22.9,66.3c0.3,0.7,0.4,1.2,0.4,1.6
			c0,0.6-0.2,1.2-0.7,1.6c-0.5,0.5-1,0.7-1.6,0.7h-13.2c-1.4,0-2.4-0.3-3-0.9c-0.6-0.6-1-1.2-1.1-1.7l-2.9-8.7h-28l-2.9,8.7
			c-0.1,0.6-0.5,1.1-1.1,1.7c-0.6,0.6-1.6,0.9-3,0.9H74.2c-0.6,0-1.2-0.2-1.6-0.7c-0.5-0.5-0.7-1-0.7-1.6c0-0.3,0.1-0.9,0.4-1.6
			l22.9-66.3c0.3-0.8,0.8-1.5,1.5-2.3c0.7-0.8,1.8-1.2,3.2-1.2H117z M99.9,138.8h17l-8.5-25.2L99.9,138.8z"/>
		<path class="st0" d="M184.7,163.6c0,0.8-0.3,1.4-0.8,2c-0.6,0.6-1.2,0.8-2,0.8H168c-0.8,0-1.4-0.3-2-0.8c-0.6-0.6-0.8-1.2-0.8-2
			v-22.4l-24.3-44.7c-0.3-0.5-0.4-0.9-0.4-1.4c0-0.6,0.2-1.2,0.7-1.6s1-0.7,1.6-0.7h14.4c1.4,0,2.5,0.4,3.2,1.1
			c0.7,0.7,1.1,1.2,1.3,1.6l13.2,25.9l13.4-25.9c0.1-0.4,0.6-0.9,1.3-1.6c0.7-0.7,1.8-1.1,3.2-1.1h14.4c0.6,0,1.2,0.2,1.6,0.7
			c0.5,0.5,0.7,1,0.7,1.6c0,0.4-0.1,0.9-0.4,1.4l-24.3,44.7V163.6z"/>
	</g>
	<g>
		<path class="st1" d="M273.7,166.5h-1.4c-1.7,0-7.3-1.4-7.3-5.5l0-29.3c0-1.7,1.4-3,3-3h11.3c1.7,0,3,1.4,3,3v29.2
			C282.4,164.6,275.4,166.5,273.7,166.5z"/>
		<path class="st2" d="M273.7,128.6c-0.3,0-0.5,0-0.8,0.1c4.4,0.3,7.9,2.6,7.9,5.5v26.7c0,2.9-3.5,5.3-7.9,5.6c0.3,0,0.5,0,0.8,0
			c4.8,0,8.7-2.5,8.7-5.6v-26.7C282.4,131.1,278.5,128.6,273.7,128.6z"/>
		<path class="st3" d="M273.7,128.6c-4.8,0-8.7,3.7-8.7,8.2v0.2c3.9,1.2,9.5,2.2,17.4,2.7v-2.9C282.4,132.3,278.5,128.6,273.7,128.6
			z"/>
		<path class="st4" d="M273.6,135.8L273.6,135.8c-22.5,0-41,3.7-41-17.7V39.9c0-21.3,18.4-38.8,41-38.8h0c22.5,0,41,17.4,41,38.8
			v78.2C314.6,139.5,296.1,135.8,273.6,135.8z"/>
		<g>
			<defs>
				<path id="SVGID_1_" d="M273.6,135.8L273.6,135.8c-22.5,0-41,3.7-41-17.7V39.9c0-21.3,18.4-38.8,41-38.8h0
					c22.5,0,41,17.4,41,38.8v78.2C314.6,139.5,296.1,135.8,273.6,135.8z"/>
			</defs>
			<clipPath id="SVGID_2_">
				<use xlink:href="#SVGID_1_"  style="overflow:visible;"/>
			</clipPath>
			<path class="st5" d="M229.6,90.4c0,0,3.5,11.2,12.8,8.5s3.6-14.9,10.9-15.7c7.8-0.8,7.7,9.8,7,17.6s2.9,12.3,7.5,10.2
				c6-2.7,2.3-12.9,3.7-20c1.4-7.2,6.9-9.5,10.7-6.2c4.1,3.6,1.7,11.5,8.8,11.5c7.7,0,4.2-11.3,11.7-11.9c5.5-0.4,6.3,7.6,15,4
				c8.8-3.6,23.5-59.3,23.5-59.3L314.7,2.3l-44.1-14.3l-41.2,8.9l-14.8,47.9l3.3,24.2L229.6,90.4z"/>
		</g>
		<g>
			<defs>
				<path id="SVGID_3_" d="M273.6,135.8L273.6,135.8c-22.5,0-41,3.7-41-17.7V39.9c0-21.3,18.4-38.8,41-38.8h0
					c22.5,0,41,17.4,41,38.8v78.2C314.6,139.5,296.1,135.8,273.6,135.8z"/>
			</defs>
			<clipPath id="SVGID_4_">
				<use xlink:href="#SVGID_3_"  style="overflow:visible;"/>
			</clipPath>
		</g>
		<path class="st6" d="M301.3,11.4c6.7,6.9,10.9,16.1,10.9,26.2v78.2c0,21.3-18.4,17.7-41,17.7h0c-15,0-28.2,1.6-35.3-3.6
			c6.3,7.8,20.8,5.8,37.7,5.8h0c22.5,0,41,3.7,41-17.7V39.9C314.6,28.7,309.4,18.5,301.3,11.4z"/>
		<path class="st7" d="M245.8,133.3c-3.8-2.5-6-6.9-6-14.5V41.4c0-20.2,15.8-36.8,35.7-38.3c0,0,11.8-0.3,22.1,7.7
			C297.5,10.8,247-0.4,245.8,133.3z"/>
		<path class="st8" d="M239.7,118.9V41.4c0-20.2,15.8-36.8,35.7-38.3c-0.8,0-1.6-0.1-2.3-0.1h0c-21.2,0-38.5,17-38.5,37.8v76.2
			c0,10.3,4.3,14.7,11.2,16.4C242,130.8,239.7,126.4,239.7,118.9z"/>
		<circle class="st9" cx="275.9" cy="9.5" r="3.5"/>
		<circle class="st9" cx="270.7" cy="24.4" r="3.3"/>
		<circle class="st10" cx="265.5" cy="14.3" r="3.1"/>
		<circle class="st11" cx="289.5" cy="15" r="3.7"/>
		<circle class="st10" cx="284.7" cy="23.7" r="3.1"/>
		<circle class="st11" cx="252.2" cy="15.9" r="2.8"/>
		<circle class="st10" cx="255.9" cy="27.9" r="2.7"/>
		<circle class="st11" cx="296.6" cy="39" r="3"/>
		<circle class="st9" cx="299.2" cy="23.7" r="3.6"/>
	</g>
</g>
</svg>
